<svg width="80" height="80" viewBox="0 0 80 80" fill="none" xmlns="http://www.w3.org/2000/svg">
<path d="M79.4681 49.7C78.6681 59.5 70.3681 67.1 60.4681 67H49.9681L29.9681 80V67L49.9681 54H60.4681C63.5681 54.1 66.1681 51.8 66.4681 48.7C67.0681 38.7 67.0681 28.7 66.2681 18.7C66.0681 16 63.7681 13.8 61.0681 13.6C54.2681 13.1 47.0681 12.9 39.8681 12.9C32.6681 12.9 25.4681 13.2 18.6681 13.7C15.8681 13.9 13.6681 16 13.4681 18.8C12.7681 28.8 12.6681 38.8 13.2681 48.8C13.5681 51.9 16.2681 54.2 19.3681 54.1H29.8681V67.1H19.4681C9.56811 67.2 1.26811 59.7 0.468113 49.8C-0.231887 39.1 -0.131887 28.5 0.668113 17.8C1.36811 8.6 8.66811 1.4 17.8681 0.8C24.9681 0.2 32.4681 0 39.9681 0C47.4681 0 54.9681 0.2 62.0681 0.8C71.2681 1.4 78.5681 8.6 79.3681 17.8C80.0681 28.4 80.1681 39.1 79.4681 49.7Z" fill="#0066FF"/>
<path d="M25.6612 42.5558C25.9086 42.3081 26.2488 42.1636 26.6096 42.1636H59.3279C59.9258 42.1636 60.2247 42.8861 59.8021 43.3093L53.3388 49.7813C53.0914 50.029 52.7512 50.1735 52.3904 50.1735H19.6721C19.0742 50.1735 18.7753 49.451 19.1979 49.0278L25.6612 42.5558Z" fill="#0066FF"/>
<path d="M25.6612 18.3922C25.9189 18.1445 26.2591 18 26.6096 18H59.3279C59.9258 18 60.2247 18.7225 59.8021 19.1458L53.3388 25.6177C53.0914 25.8654 52.7512 26.0099 52.3904 26.0099H19.6721C19.0742 26.0099 18.7753 25.2874 19.1979 24.8642L25.6612 18.3922Z" fill="#0066FF"/>
<path d="M53.3388 30.3961C53.0914 30.1484 52.7512 30.0039 52.3904 30.0039H19.6721C19.0742 30.0039 18.7753 30.7265 19.1979 31.1497L25.6612 37.6216C25.9086 37.8693 26.2488 38.0138 26.6096 38.0138H59.3279C59.9258 38.0138 60.2247 37.2913 59.8021 36.8681L53.3388 30.3961Z" fill="#0066FF"/>
</svg>
