<svg width="263" height="80" viewBox="0 0 263 80" fill="none" xmlns="http://www.w3.org/2000/svg">
<path d="M79.4681 49.7C78.6681 59.5 70.3681 67.1 60.4681 67H49.9681L29.9681 80V67L49.9681 54H60.4681C63.5681 54.1 66.1681 51.8 66.4681 48.7C67.0681 38.7 67.0681 28.7 66.2681 18.7C66.0681 16 63.7681 13.8 61.0681 13.6C54.2681 13.1 47.0681 12.9 39.8681 12.9C32.6681 12.9 25.4681 13.2 18.6681 13.7C15.8681 13.9 13.6681 16 13.4681 18.8C12.7681 28.8 12.6681 38.8 13.2681 48.8C13.5681 51.9 16.2681 54.2 19.3681 54.1H29.8681V67.1H19.4681C9.56811 67.2 1.26811 59.7 0.468113 49.8C-0.231887 39.1 -0.131887 28.5 0.668113 17.8C1.36811 8.6 8.66811 1.4 17.8681 0.8C24.9681 0.2 32.4681 0 39.9681 0C47.4681 0 54.9681 0.2 62.0681 0.8C71.2681 1.4 78.5681 8.6 79.3681 17.8C80.0681 28.4 80.1681 39.1 79.4681 49.7Z" fill="#0066FF"/>
<path d="M25.6612 42.5558C25.9086 42.3081 26.2488 42.1636 26.6096 42.1636H59.3279C59.9258 42.1636 60.2247 42.8861 59.8021 43.3093L53.3388 49.7813C53.0914 50.029 52.7512 50.1735 52.3904 50.1735H19.6721C19.0742 50.1735 18.7753 49.451 19.1979 49.0278L25.6612 42.5558Z" fill="#0066FF"/>
<path d="M25.6612 18.3922C25.9189 18.1445 26.2591 18 26.6096 18H59.3279C59.9258 18 60.2247 18.7225 59.8021 19.1458L53.3388 25.6177C53.0914 25.8654 52.7512 26.0099 52.3904 26.0099H19.6721C19.0742 26.0099 18.7753 25.2874 19.1979 24.8642L25.6612 18.3922Z" fill="#0066FF"/>
<path d="M53.3388 30.3961C53.0914 30.1484 52.7512 30.0039 52.3904 30.0039H19.6721C19.0742 30.0039 18.7753 30.7265 19.1979 31.1497L25.6612 37.6216C25.9086 37.8693 26.2488 38.0138 26.6096 38.0138H59.3279C59.9258 38.0138 60.2247 37.2913 59.8021 36.8681L53.3388 30.3961Z" fill="#0066FF"/>
<path d="M97.16 61.384C94.4293 61.384 92.232 60.8933 90.568 59.912C88.9467 58.888 87.7947 57.4373 87.112 55.56C86.472 53.64 86.2587 51.4 86.472 48.84C86.5147 48.2853 86.728 48.008 87.112 48.008H93.64C94.024 48.008 94.1947 48.264 94.152 48.776C93.9813 50.568 94.152 51.976 94.664 53C95.2187 53.9813 96.0933 54.472 97.288 54.472C98.3973 54.472 99.208 54.152 99.72 53.512C100.232 52.872 100.488 51.8267 100.488 50.376C100.488 49.1387 100.275 48.072 99.848 47.176C99.464 46.2373 98.8027 45.4267 97.864 44.744L92.424 40.52C90.4187 38.984 88.9253 37.3413 87.944 35.592C86.9627 33.8427 86.4933 31.6667 86.536 29.064C86.5787 25.736 87.4747 23.176 89.224 21.384C90.9733 19.592 93.576 18.696 97.032 18.696C100.915 18.696 103.773 19.7627 105.608 21.896C107.443 23.9867 108.189 26.9733 107.848 30.856C107.805 31.4533 107.571 31.752 107.144 31.752H100.552C100.125 31.752 99.9333 31.4533 99.976 30.856C100.147 29.3627 99.9973 28.1253 99.528 27.144C99.1013 26.12 98.3547 25.608 97.288 25.608C96.392 25.608 95.688 25.9067 95.176 26.504C94.7067 27.0587 94.4507 27.9547 94.408 29.192C94.408 30.4293 94.664 31.4747 95.176 32.328C95.688 33.1387 96.3707 33.8853 97.224 34.568L102.6 38.664C104.051 39.7307 105.203 40.8187 106.056 41.928C106.909 42.9947 107.507 44.2107 107.848 45.576C108.232 46.8987 108.424 48.4987 108.424 50.376C108.381 53.9173 107.464 56.648 105.672 58.568C103.88 60.4453 101.043 61.384 97.16 61.384ZM124.213 61.384C120.159 61.384 117.066 60.2107 114.933 57.864C112.842 55.5173 111.797 52.0613 111.797 47.496V32.712C111.797 28.0613 112.842 24.5627 114.933 22.216C117.066 19.8693 120.159 18.696 124.213 18.696C128.266 18.696 131.359 19.8693 133.493 22.216C135.626 24.5627 136.693 28.0613 136.693 32.712V47.496C136.693 52.0613 135.626 55.5173 133.493 57.864C131.359 60.2107 128.266 61.384 124.213 61.384ZM124.213 54.216C125.791 54.216 126.943 53.6827 127.669 52.616C128.394 51.5067 128.757 49.6933 128.757 47.176V32.968C128.757 30.408 128.394 28.5947 127.669 27.528C126.943 26.4187 125.791 25.864 124.213 25.864C122.677 25.864 121.525 26.4187 120.757 27.528C120.031 28.5947 119.669 30.408 119.669 32.968V47.176C119.669 49.6933 120.031 51.5067 120.757 52.616C121.525 53.6827 122.677 54.216 124.213 54.216ZM141.888 61C141.418 61 141.184 60.744 141.184 60.232V19.848C141.184 19.336 141.418 19.08 141.888 19.08H148.416C148.885 19.08 149.12 19.336 149.12 19.848V53.896H159.232C159.701 53.896 159.936 54.152 159.936 54.664V60.232C159.936 60.744 159.701 61 159.232 61H141.888Z" fill="black"/>
<path d="M163.376 61C162.949 61 162.736 60.7653 162.736 60.296L163.248 19.848C163.248 19.336 163.482 19.08 163.952 19.08H171.952C172.378 19.08 172.634 19.272 172.72 19.656L178.416 40.84L184.112 19.656C184.197 19.272 184.453 19.08 184.88 19.08H192.88C193.264 19.08 193.456 19.336 193.456 19.848L194.032 60.296C194.032 60.7653 193.818 61 193.392 61H186.864C186.437 61 186.224 60.744 186.224 60.232L186.096 42.504C186.053 40.328 186.074 38.3653 186.16 36.616C186.245 34.824 186.352 33.1813 186.48 31.688H186.416C186.074 33.0107 185.69 34.376 185.264 35.784C184.88 37.1493 184.474 38.4933 184.048 39.816L179.12 55.368C179.034 55.7093 178.842 55.88 178.544 55.88H178.224C177.968 55.88 177.776 55.7093 177.648 55.368L172.72 39.816C172.293 38.4507 171.888 37.0853 171.504 35.72C171.12 34.3547 170.757 33.0107 170.416 31.688H170.288C170.416 33.1813 170.522 34.824 170.608 36.616C170.693 38.3653 170.714 40.328 170.672 42.504L170.544 60.232C170.544 60.744 170.33 61 169.904 61H163.376ZM211.295 61C210.868 61 210.633 60.7653 210.591 60.296C210.505 59.656 210.42 58.8027 210.335 57.736C210.249 56.6267 210.185 55.6667 210.143 54.856L209.375 53.896V38.088C209.375 36.8933 209.225 36.0827 208.927 35.656C208.671 35.1867 208.159 34.952 207.391 34.952C206.537 34.952 205.961 35.2507 205.663 35.848C205.364 36.4027 205.279 37.2987 205.407 38.536C205.449 39.048 205.215 39.304 204.703 39.304H199.199C198.729 39.304 198.473 39.0053 198.431 38.408C198.217 35.3787 198.879 33.0533 200.415 31.432C201.993 29.8107 204.404 29 207.647 29C210.932 29 213.321 29.7253 214.815 31.176C216.308 32.584 217.055 34.9307 217.055 38.216V52.872C217.055 54.7493 217.055 56.264 217.055 57.416C217.097 58.5253 217.161 59.4427 217.247 60.168C217.289 60.7227 217.097 61 216.671 61H211.295ZM203.231 61.384C201.396 61.384 199.967 60.6373 198.943 59.144C197.919 57.6507 197.407 55.56 197.407 52.872C197.407 49.8853 198.068 47.56 199.391 45.896C200.756 44.1893 203.017 43.144 206.175 42.76L209.887 42.248V46.792L207.903 47.048C206.793 47.176 205.983 47.6453 205.47 48.456C204.959 49.224 204.703 50.3333 204.703 51.784C204.703 52.936 204.852 53.832 205.151 54.472C205.492 55.0693 205.961 55.368 206.559 55.368C207.113 55.368 207.689 55.112 208.287 54.6C208.927 54.088 209.631 53.2347 210.399 52.04L211.039 56.392C209.588 58.2267 208.287 59.528 207.135 60.296C206.025 61.0213 204.724 61.384 203.231 61.384ZM231.796 61.384C228.766 61.384 226.612 60.5947 225.332 59.016C224.094 57.3947 223.476 54.6853 223.476 50.888V36.104H220.66C220.233 36.104 220.02 35.8693 220.02 35.4V30.088C220.02 29.6187 220.233 29.384 220.66 29.384H223.732L224.564 21.768C224.606 21.2987 224.82 21.064 225.204 21.064H230.58C230.964 21.064 231.156 21.2987 231.156 21.768V29.384H236.66C237.129 29.384 237.364 29.6187 237.364 30.088V35.4C237.364 35.8693 237.129 36.104 236.66 36.104H231.156V50.376C231.156 51.912 231.348 53.0213 231.732 53.704C232.116 54.344 232.798 54.664 233.78 54.664C234.292 54.664 234.761 54.6213 235.188 54.536C235.614 54.408 236.105 54.2373 236.66 54.024C237.172 53.8107 237.428 53.9813 237.428 54.536V59.72C237.428 60.1893 237.236 60.488 236.852 60.616C236.212 60.8293 235.465 61 234.612 61.128C233.758 61.2987 232.82 61.384 231.796 61.384ZM250.282 61.384C246.826 61.384 244.245 60.488 242.538 58.696C240.874 56.904 240.042 54.1093 240.042 50.312V40.072C240.042 36.4027 240.917 33.6507 242.666 31.816C244.415 29.9387 246.911 29 250.154 29C253.61 29 256.191 29.9387 257.898 31.816C259.605 33.6933 260.458 36.552 260.458 40.392V46.216C260.458 46.728 260.223 46.984 259.754 46.984H247.594V50.888C247.594 52.4667 247.807 53.5973 248.234 54.28C248.661 54.9627 249.343 55.304 250.282 55.304C251.178 55.304 251.818 55.048 252.202 54.536C252.629 53.9813 252.821 53.128 252.778 51.976C252.735 51.5067 252.927 51.272 253.354 51.272H259.306C259.775 51.272 260.01 51.5067 260.01 51.976C260.053 55.1333 259.263 57.5013 257.642 59.08C256.063 60.616 253.61 61.384 250.282 61.384ZM247.594 42.12H252.906V38.984C252.906 37.6187 252.693 36.6373 252.266 36.04C251.839 35.4 251.178 35.08 250.282 35.08C249.386 35.08 248.703 35.4 248.234 36.04C247.807 36.68 247.594 37.6613 247.594 38.984V42.12Z" fill="#0066FF"/>
</svg>
