<svg width="131" height="39" viewBox="0 0 131 39" fill="none" xmlns="http://www.w3.org/2000/svg">
<path d="M117.381 24.4986L109.823 7.98535H103.551L114.347 30.2663L114.153 30.9372C113.882 31.8291 113.312 32.5992 112.538 33.1163C111.764 33.6333 110.835 33.8651 109.91 33.7722C108.827 33.7622 107.764 33.4755 106.822 32.9391L105.818 37.7113C107.267 38.3098 108.818 38.6221 110.385 38.6311C114.703 38.6311 117.316 37.0402 119.476 32.3547L130.909 7.98535H124.852L117.381 24.4986Z" fill="black"/>
<path d="M63.968 0.118164H45.8514V30.4717H51.7895V19.315H63.968C70.5863 19.315 74.9373 15.9713 74.9373 9.71655C74.9373 3.46195 70.5863 0.118164 63.968 0.118164ZM63.6442 14.0018H51.768V5.34475H63.6442C67.0775 5.34475 69.0424 6.91385 69.0424 9.67325C69.0424 12.4327 67.0775 14.0018 63.6442 14.0018Z" fill="black"/>
<path d="M99.7635 24.7146V15.5707C99.7635 10.1601 95.8875 7.35742 89.2368 7.35742C83.8385 7.35742 79.1097 9.87872 77.7817 13.7527L82.6617 15.4841C83.3851 13.5471 85.9007 12.1187 89.0317 12.1187C92.7457 12.1187 94.3112 13.6337 94.3112 15.4841V16.0793L85.4796 17.0532C80.3944 17.5943 77.0475 19.8775 77.0475 23.9571C77.0475 28.4263 80.8803 30.8286 85.9655 30.8286C89.2432 30.9309 92.4352 29.769 94.8834 27.5822C95.7687 29.7465 96.6756 31.1965 102.711 30.4282V25.9049C100.292 26.4893 99.7635 25.9049 99.7635 24.7146ZM94.3652 21.8145C94.3652 24.7579 90.2517 26.3161 86.8076 26.3161C84.184 26.3161 82.6077 25.4721 82.6077 23.7948C82.6077 22.1175 83.9033 21.5115 86.4081 21.2194L94.3868 20.2887L94.3652 21.8145Z" fill="black"/>
<path d="M34.6207 23.3516C34.6627 23.4781 34.6627 23.6147 34.6207 23.7412C34.5963 23.8673 34.5364 23.9837 34.4479 24.0766L28.7365 30.0824C28.6107 30.2121 28.4602 30.3151 28.2939 30.3854C28.1272 30.4586 27.9469 30.4955 27.7649 30.4936H0.676325C0.550875 30.4947 0.427568 30.461 0.320039 30.3962C0.212582 30.323 0.126803 30.222 0.0717194 30.1041C0.0336764 29.9844 0.0336764 29.8558 0.0717194 29.7361C0.094108 29.6116 0.150118 29.4956 0.233667 29.4007L5.95584 23.3949C6.08169 23.2653 6.23221 23.1622 6.3985 23.0919C6.56489 23.0177 6.74543 22.9808 6.92753 22.9837H33.9729C34.1034 22.9812 34.2316 23.019 34.34 23.0919C34.4615 23.1421 34.561 23.2343 34.6207 23.3516ZM28.7473 11.9461C28.6187 11.8198 28.4689 11.7173 28.3047 11.6431C28.1364 11.575 27.9571 11.5384 27.7757 11.5349H0.676325C0.549306 11.5367 0.425348 11.5742 0.318491 11.6431C0.211634 11.7119 0.126148 11.8094 0.0717194 11.9244C0.034376 12.0442 0.034376 12.1726 0.0717194 12.2924C0.0899022 12.4182 0.146467 12.5354 0.233667 12.6278L5.95584 18.6444C6.08449 18.7707 6.23434 18.8732 6.3985 18.9474C6.5665 19.0164 6.74597 19.0531 6.92753 19.0556H33.9729C34.1034 19.0581 34.2316 19.0203 34.34 18.9474C34.449 18.8837 34.5328 18.7843 34.5775 18.666C34.6328 18.5509 34.6511 18.4214 34.6299 18.2954C34.6086 18.1694 34.5488 18.0531 34.4587 17.9627L28.7473 11.9461ZM0.320039 7.50937C0.427568 7.57417 0.550875 7.60787 0.676325 7.60677H27.7757C27.9577 7.60867 28.138 7.57177 28.3047 7.49857C28.471 7.42827 28.6215 7.32517 28.7473 7.19557L34.4587 1.18977C34.5471 1.09687 34.6071 0.980409 34.6315 0.854329C34.6688 0.734539 34.6688 0.606189 34.6315 0.486409C34.5868 0.368109 34.5029 0.268789 34.3939 0.205059C34.2855 0.132129 34.1574 0.0943592 34.0269 0.0968392H6.88434C6.70224 0.0939292 6.52171 0.130859 6.35531 0.205059C6.18903 0.275369 6.03851 0.378399 5.91265 0.508049L0.201279 6.53547C0.110715 6.62687 0.0504028 6.74397 0.0285322 6.87087C-0.00951073 6.99057 -0.00951073 7.11917 0.0285322 7.23887C0.0986063 7.35447 0.199584 7.44827 0.320039 7.50937Z" fill="url(#paint0_linear_65_7)"/>
<defs>
<linearGradient id="paint0_linear_65_7" x1="2.92567" y1="31.2181" x2="30.7467" y2="-0.764719" gradientUnits="userSpaceOnUse">
<stop offset="0.08" stop-color="#9945FF"/>
<stop offset="0.3" stop-color="#8752F3"/>
<stop offset="0.5" stop-color="#5497D5"/>
<stop offset="0.6" stop-color="#43B4CA"/>
<stop offset="0.72" stop-color="#28E0B9"/>
<stop offset="0.97" stop-color="#19FB9B"/>
</linearGradient>
</defs>
</svg>
